<?xml version="1.0" encoding="utf-8"?>
<!-- Svg Vector Icons : http://www.onlinewebfonts.com/icon -->
<!DOCTYPE svg PUBLIC "-//W3C//DTD SVG 1.1//EN" "http://www.w3.org/Graphics/SVG/1.1/DTD/svg11.dtd">
<svg version="1.1" xmlns="http://www.w3.org/2000/svg" xmlns:xlink="http://www.w3.org/1999/xlink" x="0px" y="0px" viewBox="0 0 1000 1000" enable-background="new 0 0 1000 1000" xml:space="preserve">
<metadata> Svg Vector Icons : http://www.onlinewebfonts.com/icon </metadata>
<g fill="#34eb7a"><path d="M500,990C229.4,990,10,770.6,10,500C10,229.4,229.4,10,500,10c270.6,0,490,219.4,490,490C990,770.6,770.6,990,500,990z M500,101.9c-219.9,0-398.1,178.3-398.1,398.1c0,219.9,178.2,398.1,398.1,398.1c219.9,0,398.1-178.2,398.1-398.1C898.1,280.2,719.9,101.9,500,101.9z M716.2,410l-245,245l0,0c-8.3,8.3-19.8,13.5-32.5,13.5c-12.7,0-24.2-5.1-32.5-13.5l0,0L268.5,517.2l0,0c-8.3-8.3-13.5-19.8-13.5-32.5c0-25.4,20.6-45.9,45.9-45.9c12.7,0,24.2,5.2,32.5,13.5l0,0l105.3,105.4L651.3,345l0,0c8.3-8.3,19.8-13.5,32.5-13.5c25.4,0,45.9,20.6,45.9,45.9C729.7,390.2,724.5,401.7,716.2,410L716.2,410z M714.4,331.6L714.4,331.6L714.4,331.6L714.4,331.6z M331.6,714.4C331.6,714.4,331.6,714.4,331.6,714.4L331.6,714.4C331.6,714.4,331.6,714.4,331.6,714.4z M668.4,714.4L668.4,714.4L668.4,714.4L668.4,714.4z M714.4,668.5L714.4,668.5L714.4,668.5L714.4,668.5z"/></g>
</svg>