<?xml version="1.0" standalone="no"?>
<!DOCTYPE svg PUBLIC "-//W3C//DTD SVG 20010904//EN"
 "http://www.w3.org/TR/2001/REC-SVG-20010904/DTD/svg10.dtd">
<svg version="1.0" xmlns="http://www.w3.org/2000/svg"
 width="1240.000000pt" height="1240.000000pt" viewBox="0 0 1240.000000 1240.000000"
 preserveAspectRatio="xMidYMid meet">

<g transform="translate(0.000000,1240.000000) scale(0.100000,-0.100000)"
fill="#ffa600" stroke="none">
<path d="M1431 11001 c-11 -11 -23 -37 -27 -58 -4 -20 -4 -307 -1 -638 4 -330
7 -1718 7 -3085 0 -2228 2 -2488 16 -2508 36 -53 41 -48 494 401 234 233 566
563 738 733 173 170 319 318 325 329 9 15 13 432 17 1615 l5 1595 175 6 c96 4
546 9 1000 13 454 3 1104 9 1444 13 603 6 620 7 656 27 20 12 142 131 271 266
129 135 411 427 625 650 549 569 544 564 544 599 0 16 -7 35 -17 42 -13 12
-509 15 -3134 17 -3112 3 -3118 3 -3138 -17z m6087 -87 c12 -4 22 -11 22 -16
0 -13 -202 -227 -976 -1033 -111 -115 -221 -231 -244 -257 -24 -27 -49 -48
-57 -48 -7 0 -13 -6 -13 -14 0 -8 -6 -16 -13 -19 -8 -3 -144 -6 -303 -6 -159
0 -451 -3 -649 -6 -425 -7 -2048 -25 -2218 -25 -112 0 -119 -1 -142 -25 l-25
-24 0 -1608 0 -1608 -223 -220 c-122 -121 -424 -419 -670 -662 -276 -273 -456
-443 -468 -443 -18 0 -19 22 -21 923 -7 2393 -8 5084 -2 5090 9 9 5970 9 6002
1z"/>
<path d="M9129 10920 c-51 -27 -7624 -7601 -7649 -7651 -19 -37 -20 -62 -20
-889 0 -914 -1 -893 49 -920 13 -7 305 -10 868 -10 818 0 850 1 891 20 62 28
7634 7601 7662 7662 19 41 20 74 20 891 0 563 -3 855 -10 868 -27 50 -6 49
-922 49 -821 -1 -854 -2 -889 -20z"/>
<path d="M10170 7004 c-590 -587 -732 -734 -740 -763 -6 -23 -10 -596 -10
-1631 0 -877 -4 -1600 -8 -1607 -10 -16 -293 -22 -1337 -28 -1429 -8 -1896
-16 -1925 -30 -14 -7 -343 -335 -732 -728 -533 -539 -708 -721 -708 -739 0
-28 9 -42 35 -55 14 -8 988 -12 3113 -14 l3094 -4 20 25 21 25 -7 3119 c-4
2027 -10 3125 -17 3137 -6 12 -21 19 -39 19 -26 0 -123 -92 -760 -726z m703
504 c3 -13 6 -1224 7 -2693 0 -1468 3 -2800 6 -2960 4 -204 2 -299 -5 -319
l-12 -29 -2562 6 c-1409 4 -2752 7 -2984 7 -326 0 -423 3 -423 12 0 13 63 77
837 859 l452 457 233 6 c128 3 858 11 1623 17 764 7 1401 15 1414 19 14 3 32
17 42 31 16 22 18 92 23 894 3 479 6 1217 5 1640 l0 770 658 652 c362 359 663
653 669 653 7 0 14 -10 17 -22z"/>
</g>
</svg>
